<?xml version="1.0" encoding="UTF-8" standalone="no"?>
<!-- Created with Inkscape (http://www.inkscape.org/) -->

<svg
   width="210mm"
   height="297mm"
   viewBox="0 0 210 297"
   version="1.1"
   id="svg5"
   sodipodi:docname="Brunswick Street.svg"
   inkscape:version="1.1.1 (c3084ef, 2021-09-22)"
   inkscape:export-filename="/Users/adammorrow/Documents/Brunswick Street Phase 3.png"
   inkscape:export-xdpi="96"
   inkscape:export-ydpi="96"
   xmlns:inkscape="http://www.inkscape.org/namespaces/inkscape"
   xmlns:sodipodi="http://sodipodi.sourceforge.net/DTD/sodipodi-0.dtd"
   xmlns="http://www.w3.org/2000/svg"
   xmlns:svg="http://www.w3.org/2000/svg">
  <sodipodi:namedview
     id="namedview7"
     pagecolor="#ffffff"
     bordercolor="#666666"
     borderopacity="1.0"
     inkscape:pageshadow="2"
     inkscape:pageopacity="0.0"
     inkscape:pagecheckerboard="0"
     inkscape:document-units="mm"
     showgrid="false"
     showguides="false"
     inkscape:zoom="0.84029447"
     inkscape:cx="181.484"
     inkscape:cy="605.74003"
     inkscape:window-width="1920"
     inkscape:window-height="1080"
     inkscape:window-x="0"
     inkscape:window-y="0"
     inkscape:window-maximized="0"
     inkscape:current-layer="layer1" />
  <defs
     id="defs2" />
  <g
     inkscape:label="Layer 1"
     inkscape:groupmode="layer"
     id="layer1">
    <path
       style="fill:none;stroke:#000000;stroke-width:64.177;stroke-linecap:butt;stroke-linejoin:miter;stroke-miterlimit:4;stroke-dasharray:none;stroke-opacity:1"
       d="m 104.92072,-40.36976 -0.41307,336.95669"
       id="path1608"
       inkscape:export-filename="/Users/adammorrow/Documents/path1608.png"
       inkscape:export-xdpi="96"
       inkscape:export-ydpi="96" />
    <path
       style="fill:none;stroke:#000000;stroke-width:60;stroke-linecap:butt;stroke-linejoin:miter;stroke-opacity:1;stroke-miterlimit:4;stroke-dasharray:none"
       d="M -0.41307371,142.09736 210.66759,141.27121"
       id="path1610" />
    <path
       style="fill:none;stroke:#000000;stroke-width:20;stroke-linecap:butt;stroke-linejoin:miter;stroke-miterlimit:4;stroke-dasharray:none;stroke-opacity:1;opacity:1"
       d="m 2.4784423,163.57718 c 0,0 81.7885947,26.8498 81.7885947,88.81086"
       id="path1612"
       sodipodi:nodetypes="cc" />
    <path
       style="opacity:0.466667;fill:none;stroke:#d40000;stroke-width:20;stroke-linecap:butt;stroke-linejoin:miter;stroke-miterlimit:4;stroke-dasharray:none;stroke-opacity:1"
       d="m 7.8840853,175.32652 c 0,0 77.4889207,6.83976 67.5665987,71.36307"
       id="path1612-8"
       sodipodi:nodetypes="cc" />
    <path
       style="fill:none;stroke:#000000;stroke-width:20;stroke-linecap:butt;stroke-linejoin:miter;stroke-miterlimit:4;stroke-dasharray:none;stroke-opacity:1"
       d="m 4.5438109,121.44367 c 0,0 62.7872051,-34.285116 81.3755201,-77.244783"
       id="path1704"
       sodipodi:nodetypes="cc" />
    <path
       style="opacity:0.466667;fill:none;stroke:#d40000;stroke-width:21.4504;stroke-linecap:butt;stroke-linejoin:miter;stroke-miterlimit:4;stroke-dasharray:none;stroke-opacity:1"
       d="m 77.713742,37.155645 c 0,0 -7.913551,77.040355 -82.5665333,67.175455"
       id="path1612-8-3-6"
       sodipodi:nodetypes="cc" />
    <path
       style="fill:#ffffff;stroke:#fffdfd;stroke-width:2.5;stroke-linecap:butt;stroke-linejoin:miter;stroke-opacity:1;fill-opacity:1;stroke-miterlimit:4;stroke-dasharray:none"
       d="m 137.14047,114.83449 c 0,6.19611 0,6.19611 0,6.19611"
       id="path1990" />
    <path
       style="fill:#ffffff;fill-opacity:1;stroke:#fffdfd;stroke-width:2.5;stroke-linecap:butt;stroke-linejoin:miter;stroke-miterlimit:4;stroke-dasharray:none;stroke-opacity:1"
       d="m 58.811368,114.83449 c 0,6.19611 0,6.19611 0,6.19611"
       id="path1990-9" />
    <path
       style="fill:#ffffff;fill-opacity:1;stroke:#fffdfd;stroke-width:2.5;stroke-linecap:butt;stroke-linejoin:miter;stroke-miterlimit:4;stroke-dasharray:none;stroke-opacity:1"
       d="m 58.811368,162.54451 c 0,6.1961 0,6.1961 0,6.1961"
       id="path1990-5-82" />
    <path
       style="fill:#ffffff;fill-opacity:1;stroke:#fffdfd;stroke-width:2.5;stroke-linecap:butt;stroke-linejoin:miter;stroke-miterlimit:4;stroke-dasharray:none;stroke-opacity:1"
       d="m 58.811368,150.87517 c 0,6.19611 0,6.19611 0,6.19611"
       id="path1990-1-0" />
    <path
       style="fill:#ffffff;fill-opacity:1;stroke:#fffdfd;stroke-width:2.5;stroke-linecap:butt;stroke-linejoin:miter;stroke-miterlimit:4;stroke-dasharray:none;stroke-opacity:1"
       d="m 58.811368,139.36075 c 0,6.1961 0,6.1961 0,6.1961"
       id="path1990-5-8-7" />
    <path
       style="fill:#ffffff;fill-opacity:1;stroke:#fffdfd;stroke-width:2.5;stroke-linecap:butt;stroke-linejoin:miter;stroke-miterlimit:4;stroke-dasharray:none;stroke-opacity:1"
       d="m 58.811368,127.69142 c 0,6.1961 0,6.1961 0,6.1961"
       id="path1990-1-8-4" />
    <path
       style="fill:#ffffff;fill-opacity:1;stroke:#fffdfd;stroke-width:2.5;stroke-linecap:butt;stroke-linejoin:miter;stroke-miterlimit:4;stroke-dasharray:none;stroke-opacity:1"
       d="m 72.339538,114.8345 c 0,6.1961 0,6.1961 0,6.1961"
       id="path1990-2-8" />
    <path
       style="fill:#ffffff;fill-opacity:1;stroke:#fffdfd;stroke-width:2.5;stroke-linecap:butt;stroke-linejoin:miter;stroke-miterlimit:4;stroke-dasharray:none;stroke-opacity:1"
       d="m 72.339538,162.54451 c 0,6.1961 0,6.1961 0,6.1961"
       id="path1990-5-2-5" />
    <path
       style="fill:#ffffff;fill-opacity:1;stroke:#fffdfd;stroke-width:2.5;stroke-linecap:butt;stroke-linejoin:miter;stroke-miterlimit:4;stroke-dasharray:none;stroke-opacity:1"
       d="m 72.339538,150.87517 c 0,6.19611 0,6.19611 0,6.19611"
       id="path1990-1-6-8" />
    <path
       style="fill:#ffffff;fill-opacity:1;stroke:#fffdfd;stroke-width:2.5;stroke-linecap:butt;stroke-linejoin:miter;stroke-miterlimit:4;stroke-dasharray:none;stroke-opacity:1"
       d="m 72.339538,139.36075 c 0,6.1961 0,6.1961 0,6.1961"
       id="path1990-5-8-6-3" />
    <path
       style="fill:#ffffff;fill-opacity:1;stroke:#fffdfd;stroke-width:2.5;stroke-linecap:butt;stroke-linejoin:miter;stroke-miterlimit:4;stroke-dasharray:none;stroke-opacity:1"
       d="m 72.339538,127.69142 c 0,6.1961 0,6.1961 0,6.1961"
       id="path1990-1-8-7-0" />
    <path
       style="fill:#ffffff;fill-opacity:1;stroke:#fffdfd;stroke-width:2.5;stroke-linecap:butt;stroke-linejoin:miter;stroke-miterlimit:4;stroke-dasharray:none;stroke-opacity:1"
       d="m 131.22821,177.83503 c -6.19612,0 -6.19612,0 -6.19612,0"
       id="path1990-25" />
    <path
       style="fill:#ffffff;fill-opacity:1;stroke:#fffdfd;stroke-width:2.5;stroke-linecap:butt;stroke-linejoin:miter;stroke-miterlimit:4;stroke-dasharray:none;stroke-opacity:1"
       d="m 83.518182,177.83503 c -6.1961,0 -6.1961,0 -6.1961,0"
       id="path1990-5-22" />
    <path
       style="fill:#ffffff;fill-opacity:1;stroke:#fffdfd;stroke-width:2.5;stroke-linecap:butt;stroke-linejoin:miter;stroke-miterlimit:4;stroke-dasharray:none;stroke-opacity:1"
       d="m 95.187527,177.83503 c -6.196115,0 -6.196115,0 -6.196115,0"
       id="path1990-1-7" />
    <path
       style="fill:#ffffff;fill-opacity:1;stroke:#fffdfd;stroke-width:2.5;stroke-linecap:butt;stroke-linejoin:miter;stroke-miterlimit:4;stroke-dasharray:none;stroke-opacity:1"
       d="m 106.70195,177.83503 c -6.1961,0 -6.1961,0 -6.1961,0"
       id="path1990-5-8-1" />
    <path
       style="fill:#ffffff;fill-opacity:1;stroke:#fffdfd;stroke-width:2.5;stroke-linecap:butt;stroke-linejoin:miter;stroke-miterlimit:4;stroke-dasharray:none;stroke-opacity:1"
       d="m 118.37129,177.83503 c -6.19611,0 -6.19611,0 -6.19611,0"
       id="path1990-1-8-5" />
    <path
       style="fill:#ffffff;fill-opacity:1;stroke:#fffdfd;stroke-width:2.5;stroke-linecap:butt;stroke-linejoin:miter;stroke-miterlimit:4;stroke-dasharray:none;stroke-opacity:1"
       d="m 131.2282,191.36321 c -6.19611,0 -6.19611,0 -6.19611,0"
       id="path1990-2-2" />
    <path
       style="fill:#ffffff;fill-opacity:1;stroke:#fffdfd;stroke-width:2.5;stroke-linecap:butt;stroke-linejoin:miter;stroke-miterlimit:4;stroke-dasharray:none;stroke-opacity:1"
       d="m 83.518182,191.36321 c -6.1961,0 -6.1961,0 -6.1961,0"
       id="path1990-5-2-1" />
    <path
       style="fill:#ffffff;fill-opacity:1;stroke:#fffdfd;stroke-width:2.5;stroke-linecap:butt;stroke-linejoin:miter;stroke-miterlimit:4;stroke-dasharray:none;stroke-opacity:1"
       d="m 95.187527,191.36321 c -6.196115,0 -6.196115,0 -6.196115,0"
       id="path1990-1-6-1" />
    <path
       style="fill:#ffffff;fill-opacity:1;stroke:#fffdfd;stroke-width:2.5;stroke-linecap:butt;stroke-linejoin:miter;stroke-miterlimit:4;stroke-dasharray:none;stroke-opacity:1"
       d="m 106.70195,191.36321 c -6.1961,0 -6.1961,0 -6.1961,0"
       id="path1990-5-8-6-0" />
    <path
       style="fill:#ffffff;fill-opacity:1;stroke:#fffdfd;stroke-width:2.5;stroke-linecap:butt;stroke-linejoin:miter;stroke-miterlimit:4;stroke-dasharray:none;stroke-opacity:1"
       d="m 118.37128,191.36321 c -6.1961,0 -6.1961,0 -6.1961,0"
       id="path1990-1-8-7-1" />
    <path
       style="fill:#ffffff;fill-opacity:1;stroke:#fffdfd;stroke-width:2.5;stroke-linecap:butt;stroke-linejoin:miter;stroke-miterlimit:4;stroke-dasharray:none;stroke-opacity:1"
       d="m 137.14047,162.54451 c 0,6.1961 0,6.1961 0,6.1961"
       id="path1990-5" />
    <path
       style="fill:#ffffff;fill-opacity:1;stroke:#fffdfd;stroke-width:2.5;stroke-linecap:butt;stroke-linejoin:miter;stroke-miterlimit:4;stroke-dasharray:none;stroke-opacity:1"
       d="m 137.14047,150.87517 c 0,6.19611 0,6.19611 0,6.19611"
       id="path1990-1" />
    <path
       style="fill:#ffffff;fill-opacity:1;stroke:#fffdfd;stroke-width:2.5;stroke-linecap:butt;stroke-linejoin:miter;stroke-miterlimit:4;stroke-dasharray:none;stroke-opacity:1"
       d="m 137.14047,139.36075 c 0,6.1961 0,6.1961 0,6.1961"
       id="path1990-5-8" />
    <path
       style="fill:#ffffff;fill-opacity:1;stroke:#fffdfd;stroke-width:2.5;stroke-linecap:butt;stroke-linejoin:miter;stroke-miterlimit:4;stroke-dasharray:none;stroke-opacity:1"
       d="m 137.14047,127.69141 c 0,6.19611 0,6.19611 0,6.19611"
       id="path1990-1-8" />
    <path
       style="fill:#ffffff;fill-opacity:1;stroke:#fffdfd;stroke-width:2.5;stroke-linecap:butt;stroke-linejoin:miter;stroke-miterlimit:4;stroke-dasharray:none;stroke-opacity:1"
       d="m 150.66864,114.8345 c 0,6.1961 0,6.1961 0,6.1961"
       id="path1990-2" />
    <path
       style="fill:#ffffff;fill-opacity:1;stroke:#fffdfd;stroke-width:2.5;stroke-linecap:butt;stroke-linejoin:miter;stroke-miterlimit:4;stroke-dasharray:none;stroke-opacity:1"
       d="m 150.66864,162.54451 c 0,6.1961 0,6.1961 0,6.1961"
       id="path1990-5-2" />
    <path
       style="fill:#ffffff;fill-opacity:1;stroke:#fffdfd;stroke-width:2.5;stroke-linecap:butt;stroke-linejoin:miter;stroke-miterlimit:4;stroke-dasharray:none;stroke-opacity:1"
       d="m 150.66864,150.87517 c 0,6.19611 0,6.19611 0,6.19611"
       id="path1990-1-6" />
    <path
       style="fill:#ffffff;fill-opacity:1;stroke:#fffdfd;stroke-width:2.5;stroke-linecap:butt;stroke-linejoin:miter;stroke-miterlimit:4;stroke-dasharray:none;stroke-opacity:1"
       d="m 150.66864,139.36075 c 0,6.1961 0,6.1961 0,6.1961"
       id="path1990-5-8-6" />
    <path
       style="fill:#ffffff;fill-opacity:1;stroke:#fffdfd;stroke-width:2.5;stroke-linecap:butt;stroke-linejoin:miter;stroke-miterlimit:4;stroke-dasharray:none;stroke-opacity:1"
       d="m 150.66864,127.69142 c 0,6.1961 0,6.1961 0,6.1961"
       id="path1990-1-8-7" />
    <path
       style="fill:#ffffff;fill-opacity:1;stroke:#fffdfd;stroke-width:2.5;stroke-linecap:butt;stroke-linejoin:miter;stroke-miterlimit:4;stroke-dasharray:none;stroke-opacity:1"
       d="m 163.99026,172.87135 c 0,6.19611 0,6.19611 0,6.19611"
       id="path1990-54" />
    <path
       style="fill:#ffffff;fill-opacity:1;stroke:#fffdfd;stroke-width:2.5;stroke-linecap:butt;stroke-linejoin:miter;stroke-miterlimit:4;stroke-dasharray:none;stroke-opacity:1"
       d="m 131.52029,92.253477 c -6.19612,0 -6.19612,0 -6.19612,0"
       id="path1990-25-0" />
    <path
       style="fill:#ffffff;fill-opacity:1;stroke:#fffdfd;stroke-width:2.5;stroke-linecap:butt;stroke-linejoin:miter;stroke-miterlimit:4;stroke-dasharray:none;stroke-opacity:1"
       d="m 83.810261,92.253477 c -6.1961,0 -6.1961,0 -6.1961,0"
       id="path1990-5-22-9" />
    <path
       style="fill:#ffffff;fill-opacity:1;stroke:#fffdfd;stroke-width:2.5;stroke-linecap:butt;stroke-linejoin:miter;stroke-miterlimit:4;stroke-dasharray:none;stroke-opacity:1"
       d="m 95.479611,92.253477 c -6.19612,0 -6.19612,0 -6.19612,0"
       id="path1990-1-7-3" />
    <path
       style="fill:#ffffff;fill-opacity:1;stroke:#fffdfd;stroke-width:2.5;stroke-linecap:butt;stroke-linejoin:miter;stroke-miterlimit:4;stroke-dasharray:none;stroke-opacity:1"
       d="m 106.99403,92.253477 c -6.1961,0 -6.1961,0 -6.1961,0"
       id="path1990-5-8-1-7" />
    <path
       style="fill:#ffffff;fill-opacity:1;stroke:#fffdfd;stroke-width:2.5;stroke-linecap:butt;stroke-linejoin:miter;stroke-miterlimit:4;stroke-dasharray:none;stroke-opacity:1"
       d="m 118.66337,92.253477 c -6.19611,0 -6.19611,0 -6.19611,0"
       id="path1990-1-8-5-5" />
    <path
       style="fill:#ffffff;fill-opacity:1;stroke:#fffdfd;stroke-width:2.5;stroke-linecap:butt;stroke-linejoin:miter;stroke-miterlimit:4;stroke-dasharray:none;stroke-opacity:1"
       d="m 131.52028,105.78166 c -6.19611,0 -6.19611,0 -6.19611,0"
       id="path1990-2-2-7" />
    <path
       style="fill:#ffffff;fill-opacity:1;stroke:#fffdfd;stroke-width:2.5;stroke-linecap:butt;stroke-linejoin:miter;stroke-miterlimit:4;stroke-dasharray:none;stroke-opacity:1"
       d="m 83.810261,105.78166 c -6.1961,0 -6.1961,0 -6.1961,0"
       id="path1990-5-2-1-2" />
    <path
       style="fill:#ffffff;fill-opacity:1;stroke:#fffdfd;stroke-width:2.5;stroke-linecap:butt;stroke-linejoin:miter;stroke-miterlimit:4;stroke-dasharray:none;stroke-opacity:1"
       d="m 95.479611,105.78166 c -6.19612,0 -6.19612,0 -6.19612,0"
       id="path1990-1-6-1-9" />
    <path
       style="fill:#ffffff;fill-opacity:1;stroke:#fffdfd;stroke-width:2.5;stroke-linecap:butt;stroke-linejoin:miter;stroke-miterlimit:4;stroke-dasharray:none;stroke-opacity:1"
       d="m 106.99403,105.78166 c -6.1961,0 -6.1961,0 -6.1961,0"
       id="path1990-5-8-6-0-7" />
    <path
       style="fill:#ffffff;fill-opacity:1;stroke:#fffdfd;stroke-width:2.5;stroke-linecap:butt;stroke-linejoin:miter;stroke-miterlimit:4;stroke-dasharray:none;stroke-opacity:1"
       d="m 118.66336,105.78166 c -6.1961,0 -6.1961,0 -6.1961,0"
       id="path1990-1-8-7-1-5" />
    <path
       style="fill:none;stroke:#000000;stroke-width:2;stroke-linecap:butt;stroke-linejoin:miter;stroke-miterlimit:4;stroke-dasharray:none;stroke-opacity:1"
       d="m 133.30131,176.16511 c -0.073,-5.65919 5.00199,-5.73221 5.00199,-5.73221"
       id="path3743" />
    <path
       style="fill:none;stroke:#000000;stroke-width:2;stroke-linecap:butt;stroke-linejoin:miter;stroke-miterlimit:4;stroke-dasharray:none;stroke-opacity:1"
       d="m 70.043148,170.37778 c 5.65919,-0.073 5.73221,5.00199 5.73221,5.00199"
       id="path3743-4" />
    <path
       style="fill:none;stroke:#000000;stroke-width:2;stroke-linecap:butt;stroke-linejoin:miter;stroke-miterlimit:4;stroke-dasharray:none;stroke-opacity:1"
       d="m 76.234505,107.08588 c 0.073,5.65919 -5.00199,5.73221 -5.00199,5.73221"
       id="path3743-5" />
    <path
       style="fill:none;stroke:#000000;stroke-width:2;stroke-linecap:butt;stroke-linejoin:miter;stroke-miterlimit:4;stroke-dasharray:none;stroke-opacity:1"
       d="m 139.30857,112.60083 c -5.65919,0.073 -5.73221,-5.00199 -5.73221,-5.00199"
       id="path3743-2" />
    <path
       id="path3920"
       style="fill:#fcae37;fill-opacity:1;stroke:#fffdfd;stroke-width:4.72373;stroke-miterlimit:4;stroke-dasharray:none;stroke-opacity:1;paint-order:stroke markers fill"
       transform="scale(0.26458333)"
       d="m 379.54883,657.1875 -0.002,0.004 a 11.847273,11.51684 0 0 0 -11.56055,9.17382 c 0.42155,-0.11943 0.90894,-0.1875 1.46484,-0.1875 h 2.55664 0.86914 c 0.0208,-1.8e-4 0.0396,-0.002 0.0605,-0.002 h 0.31836 c 0.23047,-0.11414 0.60371,-0.14575 0.82812,-0.26367 0.52734,-0.23206 1.08681,-0.29769 1.64649,-0.29883 0.71959,-9.8e-4 1.4418,0.10654 2.10547,0.11524 1.00372,-0.0378 2.00761,-0.0194 3.01172,-0.0156 0.62078,0.11187 1.3015,-0.11485 1.92187,-0.002 0.48782,0.0892 0.96901,0.21492 1.45313,0.32226 0.80674,0.39648 1.32212,0.25238 2.16015,0.14844 0.24907,-0.004 0.49871,-0.008 0.74805,-0.008 0.17424,-0.0457 0.35186,-0.0713 0.5332,-0.0781 0.40498,-0.0151 0.82164,0.047 1.23047,0.0859 0.20977,-7.2e-4 0.41929,-7.1e-4 0.62891,-0.008 0.0265,0.008 0.0524,0.0198 0.0781,0.0273 0.4856,-0.0227 0.97252,-0.0312 1.45899,-0.0312 a 11.847273,11.51684 0 0 0 -11.51172,-8.98242 z" />
    <path
       style="fill:#fcae37;fill-opacity:1;stroke:#fffdfd;stroke-width:0.441545;stroke-miterlimit:4;stroke-dasharray:none;stroke-opacity:1;paint-order:stroke markers fill"
       d="m 277.99351,750.42843 c -29.76543,-35.31864 -67.98725,-68.1149 -114.37943,-98.14338 -1.63848,-1.06054 -2.97905,-2.03101 -2.97905,-2.1566 0,-0.1453 3.9722,-0.2315 10.92318,-0.23703 6.00775,-0.005 31.47778,-0.10263 56.60007,-0.21745 l 45.6769,-0.20877 1.17012,0.62235 c 1.52432,0.81074 4.27669,3.5567 5.19865,5.18654 0.39982,0.70679 0.99753,2.09219 1.32825,3.07865 l 0.60132,1.79358 -3.7e-4,39.32899 c -3.7e-4,38.5939 -0.14317,55.10043 -0.47666,55.10043 -0.0923,0 -1.74061,-1.86629 -3.66298,-4.14731 z"
       id="path5461"
       transform="scale(0.26458333)" />
    <path
       style="fill:#fcae37;fill-opacity:1;stroke:#fffdfd;stroke-width:1.76618;stroke-miterlimit:4;stroke-dasharray:none;stroke-opacity:1;paint-order:stroke markers fill"
       d="m 145.44592,422.18533 c 0.19375,-0.53202 6.02999,-5.28089 12.96942,-10.55306 42.06988,-31.96217 83.09502,-68.24724 110.28325,-97.54103 6.93943,-7.47685 12.891,-13.59919 13.22571,-13.6052 0.33471,-0.006 0.38926,25.7491 0.12123,57.23356 l -0.48734,57.24448 -2.37824,2.54856 c -1.30804,1.40171 -3.67573,2.95193 -5.26155,3.44496 -4.13873,1.28669 -128.92825,2.47923 -128.47248,1.22773 z"
       id="path5537"
       transform="scale(0.26458333)" />
    <path
       id="path1186"
       style="fill:none;stroke:none;stroke-width:0.999999px;stroke-linecap:butt;stroke-linejoin:miter;stroke-opacity:1"
       transform="scale(0.26458333)"
       d="m 410.46289,668.73242 -25.5,0.63867 5.40234,360.44731 19.53516,-350.99223 c -0.0814,0.0497 -0.16216,0.10005 -0.24805,0.14258 -0.48237,0.17169 -1.37587,0.65515 -2.04687,0.52148 -0.33887,0.23685 -0.66494,0.36014 -0.99219,0.52344 -0.16163,0.83479 -0.8443,1.73759 -2.19726,2.41406 -0.72057,0.36031 -2.30783,1.21301 -3.19727,1.47266 -0.35187,0.1028 -1.02433,0.52396 -1.09375,0.17383 -0.26466,0.005 -0.60852,-0.008 -1.05469,-0.008 h -0.46484 c -3.03808,0 -4.06826,-2.02597 -3.09375,-3.40235 -0.51667,-0.19146 -1.02886,-0.39875 -1.5625,-0.53125 -0.18856,-0.0469 0.30459,0.25487 0.48828,0.31836 0.25735,0.0892 0.56362,0.006 0.80664,0.12891 0.18289,0.0941 -0.4119,-0.003 -0.61523,-0.0293 -1.09418,-0.14581 -2.81624,-0.51591 -3.79102,-0.71094 v -0.002 c -4.51113,-0.90225 -3.42917,-6.079 0.91211,-4.55664 1.85866,0.65178 3.30074,0.34216 4.76562,1.01367 0.27481,0.12597 0.85858,0.81875 0.71876,0.55078 -0.15001,-0.28717 -0.501,-0.41038 -0.75196,-0.61523 0.64347,-0.017 1.25999,-0.0836 1.90625,-0.0723 0.82001,0.0113 1.64086,0.019 2.46094,0.008 0.74744,0.002 1.49475,7e-5 2.24219,0 0.55865,0.0231 1.29322,0.0344 1.7832,-0.32618 0.1903,-0.13995 0.27738,-0.38958 0.46484,-0.5332 0.25278,-0.1937 0.52841,-0.35437 0.79297,-0.53125 0.21816,0.0232 0.43723,0.0412 0.65625,0.0586 -0.31844,-0.3566 -0.15614,-0.63993 0.94336,-0.77539 0.52257,-0.0643 1.06943,-0.32153 1.58594,-0.33789 0.17217,-0.005 0.34241,0.0162 0.50586,0.0801 0.12376,0.0484 0.23852,0.10166 0.34766,0.1582 z m -2.8125,6.07617 c -0.0408,0.0288 -0.0817,0.0578 -0.12305,0.0859 0.2949,0.0255 0.58861,0.0565 0.88086,0.0996 -0.17877,-0.11216 -0.2812,-0.13589 -0.75781,-0.18555 z m -0.45703,0.36524 c -0.0307,0.0379 -0.058,0.0784 -0.0801,0.12305 -0.32805,0.66298 -0.29859,1.35316 0.0371,1.92382 0.69048,-0.54044 1.48566,-1.01418 1.91992,-1.00586 -0.69448,-0.35384 -1.40499,-0.71424 -1.87695,-1.04101 z m 2.15234,1.18359 c 0.13614,0.24358 -0.005,0.82386 -0.61718,1.91211 0.39272,1.2e-4 0.8115,-0.1415 1.21484,-0.19922 l 0.0762,-1.35937 c -0.21353,-0.11589 -0.43801,-0.23273 -0.67383,-0.35352 z m -0.77734,2.28906 c -3.3e-4,-8.3e-4 -0.0621,0.0649 -0.15234,0.1543 -0.007,0.0121 -0.014,0.023 -0.0215,0.0352 0.12441,-0.13457 0.17413,-0.18869 0.17383,-0.18946 z" />
    <path
       style="fill:#fcae37;stroke:#ffffff;stroke-width:0.264583px;stroke-linecap:butt;stroke-linejoin:miter;stroke-opacity:1;fill-opacity:1"
       d="m 102.05439,190.82941 5.84046,-0.27666"
       id="path1254" />
    <path
       id="path4190"
       style="fill:#fcae37;fill-opacity:1;stroke:#ffffff;stroke-width:2.76636;stroke-opacity:1;paint-order:stroke markers fill"
       transform="scale(0.26458333)"
       d="m 385.80469,722.75781 c -0.0151,0.005 -0.0278,0.0116 -0.0391,0.0215 0.008,-0.002 0.0296,-0.007 0.041,-0.01 -4.1e-4,-0.004 -0.002,-0.008 -0.002,-0.0117 z m 0.002,0.0117 c 0.001,0.01 0.001,0.02 0.002,0.0293 0.009,-0.0113 0.0191,-0.0224 0.0293,-0.0352 -0.0104,0.002 -0.0226,0.004 -0.0312,0.006 z m 0.002,0.0293 c -0.0294,0.0368 -0.0734,0.0938 -0.0918,0.11719 v 0.0312 c 0.0115,-0.01 0.0232,-0.0203 0.0352,-0.0293 5.3e-4,-0.015 0.002,-0.0299 0.002,-0.0449 0.0203,0.002 0.0411,0.002 0.0625,0.002 -0.002,-0.0243 -0.005,-0.0494 -0.008,-0.0762 z m -0.0566,0.11914 c -0.003,0.0906 -0.01,0.18057 -0.0176,0.27148 0.002,0.006 0.004,0.0104 0.006,0.0156 0.0115,-0.0157 0.0234,-0.0314 0.0352,-0.0469 0.0256,-0.049 0.038,-0.0758 0.0527,-0.10547 -0.002,-0.0471 -0.006,-0.10432 -0.0117,-0.16796 -0.006,0.001 -0.0117,0.004 -0.0176,0.006 -0.0128,0.005 -0.0297,0.0144 -0.0469,0.0273 z m -0.0176,0.27148 c -0.007,-0.0249 -0.0123,-0.0549 -0.0176,-0.084 v 0.13281 c 0.005,-0.007 0.0104,-0.0143 0.0156,-0.0215 8.1e-4,-0.009 0.001,-0.0183 0.002,-0.0274 z m 0.0293,-0.41015 c -0.0133,0.001 -0.0299,0.007 -0.0469,0.0117 v 0.0898 c 0.009,-0.0414 0.0214,-0.0786 0.0469,-0.10156 z m 2.74024,5.20508 c -0.001,0.012 -0.003,0.0232 -0.006,0.0352 -0.16713,0.72771 -0.6207,0.81124 -1.13086,0.49414 -0.0937,-0.058 -0.15556,-0.15131 -0.2168,-0.24609 -0.009,-0.002 -0.0182,-0.006 -0.0273,-0.008 -0.14755,-0.0353 -0.23643,-0.0527 -0.31055,-0.0723 -0.08,0.0283 -0.18517,0.0645 -0.33594,0.11719 -0.096,0.0336 -0.19892,0.05 -0.29492,0.084 -0.17374,-0.0193 -0.35481,-0.005 -0.52148,-0.0586 -0.0386,-0.0123 -0.10184,-0.0601 -0.16602,-0.11524 h -8.35156 -8.57422 l 0.22852,8.71485 c 0.12546,4.79244 0.94947,59.32158 1.83007,121.17578 0.8806,61.8542 1.73225,117.33288 1.89258,123.28711 0.20916,7.76746 0.43935,10.77662 0.81836,10.65039 0.36939,-0.1231 2.71204,-39.43307 7.78906,-130.72461 3.93472,-70.75125 7.18712,-129.08128 7.43555,-133.33203 -0.0195,-5.2e-4 -0.0391,-0.001 -0.0586,-0.002 z" />
    <path
       id="path3920-4"
       style="fill:#fcae37;fill-opacity:1;stroke:#fffdfd;stroke-width:1.24982;stroke-miterlimit:4;stroke-dasharray:none;stroke-opacity:1;paint-order:stroke markers fill"
       d="m 76.168958,137.72889 -0.001,-5.2e-4 a 3.0471639,3.1345909 0 0 0 -2.42724,-3.05873 c 0.0316,0.11153 0.0496,0.24049 0.0496,0.38757 v 0.67644 0.22996 c 5e-5,0.006 5.3e-4,0.0105 5.3e-4,0.016 v 0.0842 c 0.0302,0.061 0.0386,0.15973 0.0698,0.21911 0.0614,0.13953 0.0788,0.28755 0.0791,0.43563 2.6e-4,0.19039 -0.0282,0.38148 -0.0305,0.55708 0.01,0.26556 0.005,0.53118 0.004,0.79685 -0.0296,0.16424 0.0304,0.34435 5.3e-4,0.50849 -0.0236,0.12907 -0.0569,0.25639 -0.0853,0.38448 -0.1049,0.21345 -0.0668,0.34981 -0.0393,0.57154 10e-4,0.0659 0.002,0.13195 0.002,0.19792 0.0121,0.0461 0.0189,0.0931 0.0207,0.14107 0.004,0.10715 -0.0124,0.21739 -0.0227,0.32556 1.9e-4,0.0555 1.8e-4,0.11094 0.002,0.1664 -0.002,0.007 -0.005,0.0139 -0.007,0.0207 0.006,0.12848 0.008,0.25731 0.008,0.38602 a 3.0471639,3.1345909 0 0 0 2.3766,-3.04581 z" />
    <path
       id="path4190-0"
       style="fill:#fcae37;fill-opacity:1;stroke:#ffffff;stroke-width:0.731933;stroke-opacity:1;paint-order:stroke markers fill"
       d="m 58.820148,139.38409 c -0.001,-0.004 -0.003,-0.007 -0.006,-0.0103 5.3e-4,0.002 0.002,0.008 0.003,0.0108 10e-4,-1.1e-4 0.002,-5.3e-4 0.003,-5.3e-4 z m -0.003,5.3e-4 c -0.003,2.6e-4 -0.005,2.6e-4 -0.008,5.3e-4 0.003,0.002 0.006,0.005 0.009,0.008 -5.3e-4,-0.003 -10e-4,-0.006 -0.002,-0.008 z m -0.008,5.3e-4 c -0.01,-0.008 -0.0248,-0.0194 -0.031,-0.0243 h -0.008 c 0.003,0.003 0.005,0.006 0.008,0.009 0.004,1.4e-4 0.008,5.3e-4 0.0119,5.3e-4 -5.3e-4,0.005 -5.3e-4,0.0109 -5.3e-4,0.0165 0.006,-5.3e-4 0.0131,-0.001 0.0202,-0.002 z m -0.0315,-0.015 c -0.024,-7.9e-4 -0.0478,-0.003 -0.0718,-0.005 -0.002,5.3e-4 -0.003,0.001 -0.004,0.002 0.004,0.003 0.008,0.006 0.0124,0.009 0.013,0.007 0.02,0.01 0.0279,0.0139 0.0125,-5.3e-4 0.0276,-0.002 0.0444,-0.003 -2.6e-4,-0.002 -0.001,-0.003 -0.002,-0.005 -10e-4,-0.003 -0.004,-0.008 -0.007,-0.0124 z m -0.0718,-0.005 c 0.007,-0.002 0.0145,-0.003 0.0222,-0.005 h -0.0351 c 0.002,0.001 0.004,0.003 0.006,0.004 0.002,2.1e-4 0.005,2.6e-4 0.007,5.3e-4 z m 0.10852,0.008 c -2.7e-4,-0.004 -0.002,-0.008 -0.003,-0.0124 h -0.0238 c 0.011,0.002 0.0208,0.006 0.0269,0.0124 z m -1.37718,0.72502 c -0.003,-2.6e-4 -0.006,-7.9e-4 -0.009,-0.002 -0.19254,-0.0442 -0.21465,-0.16422 -0.13075,-0.2992 0.0153,-0.0248 0.04,-0.0412 0.0651,-0.0574 5.2e-4,-0.002 0.002,-0.005 0.002,-0.007 0.009,-0.039 0.0139,-0.0626 0.0191,-0.0822 -0.007,-0.0212 -0.0171,-0.049 -0.031,-0.0889 -0.009,-0.0254 -0.0132,-0.0526 -0.0222,-0.078 0.005,-0.046 10e-4,-0.0939 0.0155,-0.13797 0.003,-0.0102 0.0159,-0.0269 0.0305,-0.0439 v -2.20968 -2.2686 l -2.30581,0.0605 c -1.268,0.0332 -15.6955,0.25122 -32.06109,0.48421 -16.365588,0.23299 -31.044318,0.45832 -32.619708,0.50074 -2.05514,0.0553 -2.85132,0.11625 -2.81792,0.21653 0.0326,0.0977 10.43333,0.71756 34.587548,2.06085 18.7196,1.04107 34.15276,1.9016 35.27744,1.96733 1.3e-4,-0.005 2.6e-4,-0.0104 5.2e-4,-0.0155 z" />
    <path
       style="fill:none;stroke:none;stroke-width:0.264583px;stroke-linecap:butt;stroke-linejoin:miter;stroke-opacity:1"
       d="m 101.85465,177.10451 6.7472,-0.16926"
       id="path4396" />
    <path
       style="fill:none;stroke:#ffffff;stroke-width:2.41227;stroke-linecap:butt;stroke-linejoin:miter;stroke-miterlimit:4;stroke-dasharray:none;stroke-opacity:1"
       d="m 73.728073,206.57845 23.47509,-0.17389"
       id="path5301" />
    <path
       style="fill:none;stroke:#ffffff;stroke-width:2.07446;stroke-linecap:butt;stroke-linejoin:miter;stroke-miterlimit:4;stroke-dasharray:none;stroke-opacity:1"
       d="m 96.968879,76.767514 37.826641,0.07981"
       id="path5301-8" />
    <path
       style="fill:none;stroke:#ffffff;stroke-width:1;stroke-linecap:butt;stroke-linejoin:miter;stroke-miterlimit:4;stroke-dasharray:none;stroke-opacity:1"
       d="m 85.871663,207.08005 0.0576,54.98862"
       id="path5301-7" />
    <path
       style="fill:none;stroke:#ffffff;stroke-width:1;stroke-linecap:butt;stroke-linejoin:miter;stroke-miterlimit:4;stroke-dasharray:none;stroke-opacity:1"
       d="m 98.797239,262.45605 0.0576,54.98862"
       id="path5301-7-2" />
    <path
       style="fill:none;stroke:#ffffff;stroke-width:0.952977;stroke-linecap:butt;stroke-linejoin:miter;stroke-miterlimit:4;stroke-dasharray:none;stroke-opacity:1"
       d="m 85.326494,271.6026 0.104622,27.49384"
       id="path5301-7-3" />
    <path
       style="fill:none;stroke:#ffffff;stroke-width:2.41227;stroke-linecap:butt;stroke-linejoin:miter;stroke-miterlimit:4;stroke-dasharray:none;stroke-opacity:1"
       d="m 50.382345,111.83348 0.17389,23.47509"
       id="path5301-75" />
    <path
       style="fill:none;stroke:#ffffff;stroke-width:1;stroke-linecap:butt;stroke-linejoin:miter;stroke-miterlimit:4;stroke-dasharray:none;stroke-opacity:1"
       d="m 49.880745,123.97707 -54.9886196,0.0576"
       id="path5301-7-7" />
    <path
       style="fill:none;stroke:#ffffff;stroke-width:2.69693;stroke-linecap:butt;stroke-linejoin:miter;stroke-miterlimit:4;stroke-dasharray:none;stroke-opacity:1"
       d="m 157.52407,171.8803 -0.17209,-29.64768"
       id="path5301-75-1" />
    <path
       style="fill:none;stroke:#ffffff;stroke-width:1;stroke-linecap:butt;stroke-linejoin:miter;stroke-miterlimit:4;stroke-dasharray:none;stroke-opacity:1"
       d="m 158.02657,159.72401 54.98862,-0.0576"
       id="path5301-7-7-8" />
    <path
       style="fill:none;stroke:#ffffff;stroke-width:0.952977;stroke-linecap:butt;stroke-linejoin:miter;stroke-miterlimit:4;stroke-dasharray:none;stroke-opacity:1"
       d="m -14.641805,123.4319 -27.49384,0.10462"
       id="path5301-7-3-50" />
    <path
       style="fill:none;stroke:#ffffff;stroke-width:0.952977;stroke-linecap:butt;stroke-linejoin:miter;stroke-miterlimit:4;stroke-dasharray:none;stroke-opacity:1"
       d="m 112.62685,206.04698 0.10462,27.49384"
       id="path5301-7-3-9" />
    <path
       style="fill:none;stroke:#ffffff;stroke-width:0.952977;stroke-linecap:butt;stroke-linejoin:miter;stroke-miterlimit:4;stroke-dasharray:none;stroke-opacity:1"
       d="m 124.45121,206.04699 0.10462,27.49384"
       id="path5301-7-3-5" />
    <path
       style="fill:none;stroke:#ffffff;stroke-width:0.952977;stroke-linecap:butt;stroke-linejoin:miter;stroke-miterlimit:4;stroke-dasharray:none;stroke-opacity:1"
       d="m 112.62684,255.43106 0.10462,27.49384"
       id="path5301-7-3-9-4" />
    <path
       style="fill:none;stroke:#ffffff;stroke-width:0.952977;stroke-linecap:butt;stroke-linejoin:miter;stroke-miterlimit:4;stroke-dasharray:none;stroke-opacity:1"
       d="m 124.4512,255.43107 0.10462,27.49384"
       id="path5301-7-3-5-9" />
    <path
       style="fill:none;stroke:#ffffff;stroke-width:0.952977;stroke-linecap:butt;stroke-linejoin:miter;stroke-miterlimit:4;stroke-dasharray:none;stroke-opacity:1"
       d="M 115.51543,0.12886757 115.62005,27.622708"
       id="path5301-7-3-9-49" />
    <path
       style="fill:none;stroke:#ffffff;stroke-width:0.952977;stroke-linecap:butt;stroke-linejoin:miter;stroke-miterlimit:4;stroke-dasharray:none;stroke-opacity:1"
       d="M 126.20322,0.12887757 126.30784,27.622718"
       id="path5301-7-3-5-1" />
    <path
       style="fill:none;stroke:#ffffff;stroke-width:0.952977;stroke-linecap:butt;stroke-linejoin:miter;stroke-miterlimit:4;stroke-dasharray:none;stroke-opacity:1"
       d="m 115.51542,49.285635 0.10462,27.49384"
       id="path5301-7-3-9-4-5" />
    <path
       style="fill:none;stroke:#ffffff;stroke-width:1.38147;stroke-linecap:butt;stroke-linejoin:miter;stroke-miterlimit:4;stroke-dasharray:none;stroke-opacity:1"
       d="m 106.92036,19.293322 0.10462,57.776501"
       id="path5301-7-3-9-4-5-5" />
    <path
       style="fill:none;stroke:#ffffff;stroke-width:0.952977;stroke-linecap:butt;stroke-linejoin:miter;stroke-miterlimit:4;stroke-dasharray:none;stroke-opacity:1"
       d="m 126.20321,49.512958 0.10462,27.49384"
       id="path5301-7-3-5-9-5" />
    <path
       style="fill:none;stroke:#ffffff;stroke-width:0.952977;stroke-linecap:butt;stroke-linejoin:miter;stroke-miterlimit:4;stroke-dasharray:none;stroke-opacity:1"
       d="M 86.183582,1.3354104 86.288202,28.82925"
       id="path5301-7-3-5-8" />
    <path
       style="fill:none;stroke:#ffffff;stroke-width:2.22641;stroke-linecap:butt;stroke-linejoin:miter;stroke-miterlimit:4;stroke-dasharray:none;stroke-opacity:1"
       d="M 74.487509,79.457329 50.647308,51.713435"
       id="path5301-7-3-9-4-8" />
    <path
       style="fill:none;stroke:#ffffff;stroke-width:0.952977;stroke-linecap:butt;stroke-linejoin:miter;stroke-miterlimit:4;stroke-dasharray:none;stroke-opacity:1"
       d="m 86.183572,50.71949 0.10462,27.49384"
       id="path5301-7-3-5-9-3" />
    <path
       style="fill:none;stroke:#ffffff;stroke-width:0.952977;stroke-linecap:butt;stroke-linejoin:miter;stroke-miterlimit:4;stroke-dasharray:none;stroke-opacity:1"
       d="m 76.01207,50.826136 0.10462,27.49384"
       id="path5301-7-3-5-9-3-7" />
    <path
       style="fill:none;stroke:#ffffff;stroke-width:0.952977;stroke-linecap:butt;stroke-linejoin:miter;stroke-miterlimit:4;stroke-dasharray:none;stroke-opacity:1"
       d="m 47.225438,156.62201 -27.49384,0.10462"
       id="path5301-7-3-5-9-3-7-4" />
    <path
       style="fill:#fcae37;fill-opacity:1;stroke:#000000;stroke-width:0.367382;stroke-linecap:butt;stroke-linejoin:miter;stroke-miterlimit:4;stroke-dasharray:none;stroke-opacity:1"
       d="M 97.013145,77.340092 96.521316,2.2917176 h 3.073931 L 97.996802,77.708881 Z"
       id="path7438" />
    <path
       style="fill:#ffffff;stroke:#ffffff;stroke-width:1.22152;stroke-linecap:butt;stroke-linejoin:miter;stroke-miterlimit:4;stroke-dasharray:none;stroke-opacity:1"
       d="m 106.64671,11.282936 c 0,-3.5801862 0,-3.5801862 0,-3.5801862"
       id="path18419" />
    <path
       style="fill:#ffffff;stroke:#ffffff;stroke-width:1.22152;stroke-linecap:butt;stroke-linejoin:miter;stroke-miterlimit:4;stroke-dasharray:none;stroke-opacity:1"
       d="m 106.6668,5.5975915 c 0,-3.580185 0,-3.580185 0,-3.580185"
       id="path18419-3" />
    <path
       style="fill:#ffffff;stroke:#ffffff;stroke-width:1.22152;stroke-linecap:butt;stroke-linejoin:miter;stroke-miterlimit:4;stroke-dasharray:none;stroke-opacity:1"
       d="m 106.91691,24.96606 c 0,-3.580186 0,-3.580186 0,-3.580186"
       id="path18419-7" />
    <path
       style="fill:#ffffff;stroke:#ffffff;stroke-width:1.22152;stroke-linecap:butt;stroke-linejoin:miter;stroke-miterlimit:4;stroke-dasharray:none;stroke-opacity:1"
       d="m 106.60998,16.747125 c 0,-3.580185 0,-3.580185 0,-3.580185"
       id="path18419-3-5" />
    <path
       style="fill:#ffffff;fill-opacity:1;stroke:#ffffff;stroke-width:0.227094;stroke-miterlimit:4;stroke-dasharray:none;stroke-opacity:1;paint-order:stroke markers fill"
       d=""
       id="path20407"
       transform="scale(0.26458333)" />
    <path
       style="fill:#ffffff;fill-opacity:1;stroke:#ffffff;stroke-width:0.0545993;stroke-miterlimit:4;stroke-dasharray:none;stroke-opacity:1;paint-order:stroke markers fill"
       d="m 101.80586,73.126222 c -0.008,-0.005 -0.47434,-0.722658 -1.03516,-1.594952 -0.56083,-0.872297 -1.02219,-1.584463 -1.025244,-1.58259 -0.0092,0.0056 -0.275706,-0.396883 -0.323752,-0.489196 -0.03417,-0.06564 -0.04622,-0.10047 -0.0503,-0.145627 -0.01057,-0.117005 -0.06746,-0.01376 0.711466,-1.292296 1.08719,-1.784577 1.67381,-2.737423 1.70705,-2.77279 0.0634,-0.06743 0.15964,0.02517 0.16964,0.163039 0.005,0.07217 0.007,0.0408 -0.0855,1.210162 -0.0865,1.08885 -0.0847,1.06765 -0.0916,1.078639 -0.01,0.01522 0.0289,0.01112 0.14865,-0.01551 0.89123,-0.198042 1.53652,-0.812396 1.96743,-1.873132 0.30469,-0.750162 0.50354,-1.711304 0.59784,-2.890219 0.0282,-0.350128 0.0352,-0.391 0.0648,-0.447296 0.0247,-0.04533 0.062,-0.07516 0.0937,-0.07516 0.0247,0 0.0708,0.04671 0.0919,0.09547 0.0359,0.08297 0.11377,0.585141 0.16027,1.037134 0.055,0.530636 0.0574,0.587163 0.0578,1.235164 1.7e-4,0.640971 -0.002,0.690568 -0.0532,1.159921 -0.15358,1.407408 -0.61196,2.687612 -1.31132,3.661906 -0.1409,0.196199 -0.25362,0.335513 -0.27159,0.335513 -0.007,0 -0.0317,0.01814 -0.0504,0.04065 -0.15323,0.178873 -0.37064,0.387576 -0.56303,0.5403 -0.28047,0.222625 -0.65756,0.417675 -0.89821,0.464583 l -0.0595,0.01171 0.005,0.03942 c 0.0134,0.09687 0.17915,1.86864 0.17915,1.915533 0,0.130496 -0.0702,0.228098 -0.13643,0.18973 z m -0.1248,-0.742969 c 0,-0.02371 -0.013,-0.03213 -0.0236,-0.01522 -0.007,0.01112 0.004,0.03922 0.0151,0.03922 0.005,0 0.009,-0.01083 0.009,-0.024 z m -0.0194,-6.302883 c 0,-0.0053 -0.004,-0.0097 -0.01,-0.0097 -0.005,0 -0.01,0.0044 -0.01,0.0097 0,0.0053 0.004,0.0097 0.01,0.0097 0.005,0 0.01,-0.0044 0.01,-0.0097 z"
       id="path20524" />
    <path
       style="fill:#ffffff;fill-opacity:1;stroke:#ffffff;stroke-width:0.0545993;stroke-miterlimit:4;stroke-dasharray:none;stroke-opacity:1;paint-order:stroke markers fill"
       d="m 102.1006,56.859271 c -0.008,-0.005 -0.47434,-0.722658 -1.03516,-1.594952 -0.56083,-0.872297 -1.02219,-1.584463 -1.02525,-1.58259 -0.009,0.0056 -0.275705,-0.396883 -0.323755,-0.489196 -0.0342,-0.06564 -0.0462,-0.10047 -0.0503,-0.145627 -0.0106,-0.117005 -0.0675,-0.01376 0.711475,-1.292296 1.08719,-1.784577 1.67381,-2.737423 1.70705,-2.77279 0.0634,-0.06743 0.15964,0.02517 0.16964,0.163039 0.005,0.07217 0.007,0.0408 -0.0855,1.210162 -0.0865,1.08885 -0.0847,1.06765 -0.0916,1.078639 -0.01,0.01522 0.0289,0.01112 0.14865,-0.01551 0.89123,-0.198042 1.53652,-0.812396 1.96743,-1.873132 0.30469,-0.750162 0.50354,-1.711304 0.59784,-2.890219 0.0282,-0.350128 0.0352,-0.391 0.0648,-0.447296 0.0247,-0.04533 0.062,-0.07516 0.0937,-0.07516 0.0247,0 0.0708,0.04671 0.0919,0.09547 0.0359,0.08297 0.11377,0.585141 0.16027,1.037134 0.055,0.530636 0.0574,0.587163 0.0578,1.235164 1.7e-4,0.640971 -0.002,0.690568 -0.0532,1.159921 -0.15358,1.407408 -0.61196,2.687612 -1.31132,3.661906 -0.1409,0.196199 -0.25362,0.335513 -0.27159,0.335513 -0.007,0 -0.0317,0.01814 -0.0504,0.04065 -0.15323,0.178873 -0.37064,0.387576 -0.56303,0.5403 -0.28047,0.222625 -0.65756,0.417675 -0.89821,0.464583 l -0.0595,0.01171 0.005,0.03942 c 0.0134,0.09687 0.17915,1.86864 0.17915,1.915533 0,0.130496 -0.0702,0.228098 -0.13643,0.18973 z m -0.1248,-0.742969 c 0,-0.02371 -0.013,-0.03213 -0.0236,-0.01522 -0.007,0.01112 0.004,0.03922 0.0151,0.03922 0.005,0 0.009,-0.01083 0.009,-0.024 z m -0.0194,-6.302883 c 0,-0.0053 -0.004,-0.0097 -0.01,-0.0097 -0.005,0 -0.01,0.0044 -0.01,0.0097 0,0.0053 0.004,0.0097 0.01,0.0097 0.005,0 0.01,-0.0044 0.01,-0.0097 z"
       id="path20524-0" />
    <path
       style="fill:none;stroke:#ffffff;stroke-width:1.07438;stroke-linecap:butt;stroke-linejoin:miter;stroke-miterlimit:4;stroke-dasharray:none;stroke-opacity:1"
       d="m 191.69415,126.59983 -34.96579,0.10456"
       id="path5301-7-3-9-9" />
    <path
       style="fill:none;stroke:#ffffff;stroke-width:1.3357;stroke-linecap:butt;stroke-linejoin:miter;stroke-miterlimit:4;stroke-dasharray:none;stroke-opacity:1"
       d="m 209.96616,142.75718 -54.044,0.10456"
       id="path5301-7-3-5-93" />
    <path
       style="fill:none;fill-opacity:1;stroke:#fcae37;stroke-width:20;stroke-linecap:butt;stroke-linejoin:miter;stroke-miterlimit:4;stroke-dasharray:none;stroke-opacity:1"
       d="m -5.5649675,181.13969 c 0,0 69.8403405,25.8771 70.1185915,67.33611"
       id="path51493"
       sodipodi:nodetypes="cc" />
    <path
       style="fill:#fcae37;fill-opacity:1;stroke:#fcae37;stroke-width:20.2938;stroke-linecap:butt;stroke-linejoin:miter;stroke-miterlimit:4;stroke-dasharray:none;stroke-opacity:1"
       d="m 64.553623,246.90216 0.126881,54.74418"
       id="path83517"
       sodipodi:nodetypes="cc" />
    <path
       style="fill:none;fill-opacity:1;stroke:#fcae37;stroke-width:21.8371;stroke-linecap:butt;stroke-linejoin:miter;stroke-miterlimit:4;stroke-dasharray:none;stroke-opacity:1"
       d="m -14.025139,110.31657 c 0,0 78.556149,-49.397288 78.29986,-67.336115"
       id="path51493-7"
       sodipodi:nodetypes="cc" />
    <path
       style="fill:#fcae37;fill-opacity:1;stroke:#fcae37;stroke-width:21.8371;stroke-linecap:butt;stroke-linejoin:miter;stroke-miterlimit:4;stroke-dasharray:none;stroke-opacity:1"
       d="m 63.792165,47.806014 0.15126,-53.17054"
       id="path83517-6"
       sodipodi:nodetypes="cc" />
    <path
       style="fill:none;stroke:#000000;stroke-width:0.264583px;stroke-linecap:butt;stroke-linejoin:miter;stroke-opacity:1"
       d="M 158.49717,111.49398 158.40471,-3.5516751"
       id="path93443" />
    <path
       style="fill:none;stroke:#000000;stroke-width:0.264583px;stroke-linecap:butt;stroke-linejoin:miter;stroke-opacity:1"
       d="m 158.40471,-3.5516751 -23.26347,-0.044396 -0.37902,112.2942711 0.64223,1.23095 0.8028,0.90983 0.85631,0.48168 1.39151,0.26759 20.0421,-0.0943"
       id="path93445" />
    <path
       style="fill:#fcae37;fill-opacity:1;stroke:#fcae37;stroke-width:0;stroke-miterlimit:4;stroke-dasharray:none;stroke-opacity:1;paint-order:stroke markers fill"
       d="m 519.7925,420.0747 c -3.17765,-1.03324 -4.72827,-2.3203 -7.18327,-5.96238 l -2.38992,-3.54551 0.47672,-173.82228 c 0.2622,-95.60225 0.72035,-190.749733 1.01813,-211.438843 l 0.5414,-37.616562 h 42.75291 42.7529 V 204.26933 420.84954 l -38.07252,-0.0909 c -20.93988,-0.05 -38.89324,-0.35776 -39.89635,-0.68394 z"
       id="path93601"
       transform="scale(0.26458333)" />
    <path
       style="fill:#fcae37;fill-opacity:1;stroke:#fcae37;stroke-width:0;stroke-miterlimit:4;stroke-dasharray:none;stroke-opacity:1;paint-order:stroke markers fill"
       d="m 137.26857,90.69139 c 0.27338,-0.84075 0.61392,-1.25102 1.57755,-1.90057 l 0.93808,-0.63233 45.99048,0.12613 c 25.29476,0.0694 50.4692,0.19059 55.94319,0.26938 l 9.95272,0.14324 v 11.31171 11.31171 h -57.30351 -57.30352 l 0.024,-10.07336 c 0.0132,-5.54034 0.0947,-10.2905 0.18096,-10.55591 z"
       id="path93601-8" />
    <path
       style="fill:#fcae37;fill-opacity:1;stroke:#fcae37;stroke-width:0;stroke-miterlimit:4;stroke-dasharray:none;stroke-opacity:1;paint-order:stroke markers fill"
       d="m 134.74856,174.10563 c 0.27337,-0.84075 0.61391,-1.25102 1.57754,-1.90057 l 0.93808,-0.63233 45.99048,0.12613 c 25.29476,0.0694 50.4692,0.19059 55.9432,0.26938 l 9.95271,0.14324 v 11.31171 11.31171 h -57.30351 -57.30351 l 0.024,-10.07336 c 0.0132,-5.54034 0.0947,-10.2905 0.18096,-10.55591 z"
       id="path93601-7" />
    <path
       style="fill:#fcae37;fill-opacity:1;stroke:#fcae37;stroke-width:0;stroke-miterlimit:4;stroke-dasharray:none;stroke-opacity:1;paint-order:stroke markers fill"
       d="m 155.37783,174.33542 c 0.84075,0.30643 1.25102,0.68814 1.90057,1.76825 l 0.63233,1.05148 -0.12613,51.55004 c -0.0694,28.35252 -0.19059,56.57017 -0.26938,62.70589 l -0.14324,11.15585 h -11.31171 -11.31171 v -64.23064 -64.23066 l 10.07336,0.0269 c 5.54034,0.0148 10.2905,0.10615 10.55591,0.20284 z"
       id="path93601-8-4" />
    <rect
       style="opacity:0.422222;fill:#00ff00;fill-opacity:1;stroke:#fcae37;stroke-width:0;stroke-miterlimit:4;stroke-dasharray:none;stroke-opacity:1;paint-order:stroke markers fill"
       id="rect94237-9"
       width="29.876982"
       height="317.36963"
       x="111.32066"
       y="-251.67059"
       transform="rotate(90)" />
    <rect
       style="opacity:0.422222;fill:#00ff00;fill-opacity:1;stroke:#fcae37;stroke-width:0;stroke-miterlimit:4;stroke-dasharray:none;stroke-opacity:1;paint-order:stroke markers fill"
       id="rect94237-9-4"
       width="29.876982"
       height="317.36963"
       x="141.19765"
       y="-251.67059"
       transform="rotate(90)" />
    <rect
       style="opacity:0.422222;fill:#ff0000;fill-opacity:1;stroke:#fcae37;stroke-width:0;stroke-miterlimit:4;stroke-dasharray:none;stroke-opacity:1;paint-order:stroke markers fill"
       id="rect94237-8-3-0"
       width="31.138796"
       height="132.64832"
       x="-134.74857"
       y="-302.56693"
       transform="scale(-1)"
       ry="0" />
  </g>
</svg>
